<?xml version="1.0" encoding="UTF-8"?>
<svg xmlns="http://www.w3.org/2000/svg" xmlns:xlink="http://www.w3.org/1999/xlink" version="1.1" width="2812px" height="2986px" style="shape-rendering:geometricPrecision; text-rendering:geometricPrecision; image-rendering:optimizeQuality; fill-rule:evenodd; clip-rule:evenodd">
  <g>
    <path style="opacity:0.991" fill="#000000" d="M 479.5,-0.5 C 489.5,-0.5 499.5,-0.5 509.5,-0.5C 560.937,9.77094 591.437,40.7709 601,92.5C 604.035,151.957 577.535,191.457 521.5,211C 542.831,310.995 575.331,407.162 619,499.5C 616.344,443.053 621.677,387.387 635,332.5C 653.614,270.76 688.447,220.26 739.5,181C 755.023,169.153 771.356,158.486 788.5,149C 790.909,147.293 793.575,146.46 796.5,146.5C 811.785,200.444 818.285,255.444 816,311.5C 814.234,354.234 803.567,394.567 784,432.5C 769.446,458.392 749.946,479.892 725.5,497C 705.156,509.837 685.156,523.17 665.5,537C 658.826,542.879 653.493,549.712 649.5,557.5C 685.938,625.077 728.105,688.744 776,748.5C 808.693,788.153 843.026,826.486 879,863.5C 852.99,802.775 836.323,739.441 829,673.5C 822.974,604.607 837.307,540.274 872,480.5C 888.905,450.927 909.572,424.26 934,400.5C 976.292,461.108 1004.96,527.775 1020,600.5C 1028.83,645.809 1027,690.643 1014.5,735C 1007.28,757.283 996.776,777.783 983,796.5C 970.379,812.79 957.379,828.79 944,844.5C 931.428,859.312 923.428,876.312 920,895.5C 919.333,898.167 919.333,900.833 920,903.5C 1004.58,982.443 1094.08,1054.94 1188.5,1121C 1243.65,1159.74 1299.31,1197.74 1355.5,1235C 1479.75,1314.59 1602.92,1395.76 1725,1478.5C 1725.17,1476.15 1724.84,1473.82 1724,1471.5C 1688.21,1367.8 1655.87,1263.13 1627,1157.5C 1617.15,1145.32 1604.98,1136.15 1590.5,1130C 1559.06,1119.64 1527.72,1108.97 1496.5,1098C 1450.89,1078.05 1414.05,1047.55 1386,1006.5C 1356.02,960.518 1335.35,910.518 1324,856.5C 1312.98,805.76 1307.81,754.426 1308.5,702.5C 1393.72,720.016 1466.22,760.016 1526,822.5C 1548.99,849.108 1567.99,878.441 1583,910.5C 1578.96,847.657 1582.96,785.323 1595,723.5C 1601.28,693.544 1610.11,664.377 1621.5,636C 1579.28,605.009 1564.11,563.843 1576,512.5C 1591.1,469.354 1621.27,444.188 1666.5,437C 1714.14,433.9 1749.98,452.733 1774,493.5C 1786.19,519.161 1788.86,545.828 1782,573.5C 1771.15,608.346 1748.65,632.18 1714.5,645C 1694.46,650.895 1674.12,652.061 1653.5,648.5C 1637.2,702.591 1629.2,757.924 1629.5,814.5C 1632.14,917.019 1650.31,1016.69 1684,1113.5C 1706.5,1046.82 1738.17,985.157 1779,928.5C 1828.76,867.811 1891.59,826.644 1967.5,805C 1993,797.399 2019,792.566 2045.5,790.5C 2039.02,875.102 2015.85,954.768 1976,1029.5C 1955.83,1064.64 1930.33,1095.47 1899.5,1122C 1874.35,1141.58 1846.35,1155.91 1815.5,1165C 1789.7,1171.56 1763.7,1177.23 1737.5,1182C 1727.97,1184.4 1718.64,1187.4 1709.5,1191C 1743.83,1296.31 1766,1404.14 1776,1514.5C 2033.33,1696.81 2258.66,1913.15 2452,2163.5C 2465,2181.17 2478,2198.83 2491,2216.5C 2465.22,2130.39 2439.89,2044.06 2415,1957.5C 2401.24,1908.12 2388.57,1858.46 2377,1808.5C 2365.71,1798.93 2352.87,1792.1 2338.5,1788C 2305.92,1781.87 2273.25,1776.2 2240.5,1771C 2185.02,1758.47 2138.19,1731.31 2100,1689.5C 2057.23,1639.99 2025.23,1583.99 2004,1521.5C 1988.77,1477.93 1978.27,1433.26 1972.5,1387.5C 2055.31,1391.83 2130.98,1416.99 2199.5,1463C 2229.59,1484.42 2255.75,1509.92 2278,1539.5C 2304.18,1574.5 2326.85,1611.84 2346,1651.5C 2326.98,1530.62 2318.32,1408.95 2320,1286.5C 2275.72,1273.55 2248.72,1244.55 2239,1199.5C 2233.58,1160.09 2245.41,1126.92 2274.5,1100C 2308.85,1073.09 2346.52,1067.43 2387.5,1083C 2436.65,1107.79 2457.48,1147.62 2450,1202.5C 2437.45,1253.19 2405.29,1281.86 2353.5,1288.5C 2358.33,1411.84 2373.83,1533.84 2400,1654.5C 2408.55,1694.35 2417.88,1734.01 2428,1773.5C 2439.32,1694.23 2462.98,1618.89 2499,1547.5C 2532.02,1488.81 2577.52,1442.31 2635.5,1408C 2672.14,1386.02 2711.14,1369.52 2752.5,1358.5C 2762.09,1447.84 2751.59,1535.17 2721,1620.5C 2704.26,1665.86 2679.09,1705.69 2645.5,1740C 2625.43,1758.54 2603.09,1773.88 2578.5,1786C 2551.48,1797.45 2524.15,1808.12 2496.5,1818C 2482.38,1823.89 2469.38,1831.56 2457.5,1841C 2454.27,1843.73 2451.6,1846.89 2449.5,1850.5C 2468.77,1910.8 2488.93,1970.8 2510,2030.5C 2543.92,2135.19 2567.26,2242.19 2580,2351.5C 2664.69,2493.24 2730.03,2643.57 2776,2802.5C 2790.55,2855.03 2802.39,2908.03 2811.5,2961.5C 2811.5,2965.83 2811.5,2970.17 2811.5,2974.5C 2808.58,2980.43 2803.91,2984.1 2797.5,2985.5C 2792.83,2985.5 2788.17,2985.5 2783.5,2985.5C 2779.52,2983.69 2776.69,2980.69 2775,2976.5C 2703.54,2767.26 2608.87,2569.59 2491,2383.5C 2473.92,2356.33 2456.58,2329.33 2439,2302.5C 2426.12,2282.56 2412.62,2263.06 2398.5,2244C 2357.31,2216.73 2313.98,2193.07 2268.5,2173C 2201.23,2144.69 2132.23,2121.36 2061.5,2103C 2018.62,2091.53 1975.62,2080.53 1932.5,2070C 1862.3,2054.29 1792.14,2038.46 1722,2022.5C 1697.4,2034.1 1679.07,2052.1 1667,2076.5C 1651.87,2109.45 1634.2,2140.79 1614,2170.5C 1577.95,2215.13 1532.45,2246.3 1477.5,2264C 1408.04,2285.45 1337.04,2293.11 1264.5,2287C 1236.65,2284.89 1208.98,2281.39 1181.5,2276.5C 1210.08,2202.41 1255.41,2140.58 1317.5,2091C 1359.02,2060.24 1405.02,2038.58 1455.5,2026C 1513.9,2010.99 1573.23,2002.32 1633.5,2000C 1549.9,1977.69 1469.9,1946.36 1393.5,1906C 1328.14,1869.54 1269.64,1824.04 1218,1769.5C 1175.98,1785.41 1137.81,1778.91 1103.5,1750C 1066.95,1711.47 1059.78,1667.97 1082,1619.5C 1111.51,1572.87 1153.34,1555.71 1207.5,1568C 1261.25,1588.12 1286.42,1626.96 1283,1684.5C 1279.42,1712.37 1266.92,1735.2 1245.5,1753C 1306.62,1810.7 1376.28,1855.7 1454.5,1888C 1521.29,1915.26 1589.96,1936.26 1660.5,1951C 1597.77,1915.84 1541.93,1871.68 1493,1818.5C 1445.25,1759.29 1416.92,1691.62 1408,1615.5C 1404.16,1585.52 1403.66,1555.52 1406.5,1525.5C 1492.76,1547.59 1570.76,1585.76 1640.5,1640C 1673.49,1667.31 1700.99,1699.14 1723,1735.5C 1740.14,1766.71 1750.47,1800.04 1754,1835.5C 1755.54,1868.18 1757.21,1900.84 1759,1933.5C 1760.47,1945.4 1763.81,1956.73 1769,1967.5C 1770.52,1970.56 1772.52,1973.22 1775,1975.5C 1841.78,1987.94 1908.61,2000.1 1975.5,2012C 2055.69,2025.55 2133.69,2046.88 2209.5,2076C 2245.1,2090.8 2279.76,2107.14 2313.5,2125C 2166.91,1933.74 1998.24,1764.41 1807.5,1617C 1728.08,1557.12 1647.08,1499.46 1564.5,1444C 1518.83,1413.5 1473.17,1383 1427.5,1352.5C 1413.05,1356.14 1400.38,1362.97 1389.5,1373C 1382.97,1379.2 1376.8,1385.7 1371,1392.5C 1356.42,1411.75 1341.09,1430.42 1325,1448.5C 1282.67,1491.08 1231.51,1516.25 1171.5,1524C 1103.06,1531.82 1035.73,1526.16 969.5,1507C 942.858,1499.79 916.858,1490.79 891.5,1480C 891.043,1479.59 890.709,1479.09 890.5,1478.5C 936.73,1408.22 998.73,1357.05 1076.5,1325C 1124.93,1308.51 1174.77,1300.68 1226,1301.5C 1275.3,1302.28 1324.14,1307.11 1372.5,1316C 1331.33,1288.25 1290.33,1260.25 1249.5,1232C 1223.77,1220.53 1197.1,1211.87 1169.5,1206C 1124.88,1197.15 1079.88,1191.15 1034.5,1188C 984.838,1184.18 935.171,1180.84 885.5,1178C 875.623,1190.25 868.79,1204.09 865,1219.5C 859.043,1247 851.376,1274 842,1300.5C 826.443,1337.06 802.943,1367.56 771.5,1392C 726.425,1425.2 676.425,1448.2 621.5,1461C 582.068,1470.66 542.068,1476.16 501.5,1477.5C 513.34,1395.98 548.34,1326.48 606.5,1269C 642.905,1237.78 683.571,1213.11 728.5,1195C 749.185,1186.49 770.185,1178.83 791.5,1172C 747.892,1169.03 704.226,1166.7 660.5,1165C 597.801,1161.02 536.134,1150.85 475.5,1134.5C 465.688,1138.24 457.021,1143.74 449.5,1151C 431.31,1171.89 413.477,1193.06 396,1214.5C 357.576,1255.13 310.409,1278.96 254.5,1286C 195.349,1292.99 137.016,1288.65 79.5,1273C 52.2902,1265.65 25.6236,1256.82 -0.5,1246.5C -0.5,1245.5 -0.5,1244.5 -0.5,1243.5C 83.8498,1122.14 200.183,1069.64 348.5,1086C 284.264,1054.04 229.264,1010.37 183.5,955C 133.349,965.844 93.1825,950.677 63,909.5C 44.4897,877.961 41.4897,844.961 54,810.5C 70.477,773.669 98.6436,751.835 138.5,745C 178.779,740.75 211.946,753.917 238,784.5C 262.485,818.569 267.152,855.236 252,894.5C 243.687,912.787 231.353,927.787 215,939.5C 214.333,940.167 214.333,940.833 215,941.5C 264.613,992.399 322.779,1030.57 389.5,1056C 474.305,1087.52 561.972,1104.52 652.5,1107C 731.833,1107.33 811.167,1107.67 890.5,1108C 964.208,1109.52 1037.21,1117.19 1109.5,1131C 1041.24,1080.1 975.909,1025.43 913.5,967C 898.041,961.844 882.374,961.177 866.5,965C 838.434,975.133 810.434,985.467 782.5,996C 731.089,1010.54 680.422,1008.21 630.5,989C 589.01,972.268 551.01,949.934 516.5,922C 482.761,894.261 452.427,863.261 425.5,829C 491.237,793.92 561.237,780.253 635.5,788C 672.662,793.165 707.995,804.165 741.5,821C 762.668,831.907 783.334,843.241 803.5,855C 717.496,760.059 645.829,655.059 588.5,540C 579.865,534.841 570.532,531.841 560.5,531C 534.982,531.014 509.482,531.847 484,533.5C 445.294,534.041 409.461,524.208 376.5,504C 348.396,485.666 323.563,463.499 302,437.5C 267.197,394.253 240.363,346.253 221.5,293.5C 335.871,274.454 432.038,307.454 510,392.5C 521.142,404.796 531.809,417.463 542,430.5C 523.945,378.322 508.278,325.322 495,271.5C 490.355,251.92 486.188,232.254 482.5,212.5C 431.933,204.435 400.766,175.435 389,125.5C 382.798,75.0763 401.298,36.9096 444.5,11C 455.732,5.45107 467.398,1.61773 479.5,-0.5 Z"></path>
  </g>
</svg>
